<?xml version="1.0" encoding="UTF-8"?>
<svg id="Camada_2" data-name="Camada 2" xmlns="http://www.w3.org/2000/svg" xmlns:xlink="http://www.w3.org/1999/xlink" viewBox="0 0 397.47 142.7">
  <defs>
    <linearGradient id="Gradiente_sem_nome_17" data-name="Gradiente sem nome 17" x1="36.69" y1="51.04" x2="36.69" y2="142.7" gradientUnits="userSpaceOnUse">
      <stop offset="0" stop-color="#ef0000"/>
      <stop offset="1" stop-color="#000"/>
    </linearGradient>
    <linearGradient id="Gradiente_sem_nome_17-2" data-name="Gradiente sem nome 17" x1="65.01" y1="50.99" x2="65.01" xlink:href="#Gradiente_sem_nome_17"/>
    <linearGradient id="Gradiente_sem_nome_17-3" data-name="Gradiente sem nome 17" x1="82.11" x2="82.11" xlink:href="#Gradiente_sem_nome_17"/>
    <linearGradient id="Gradiente_sem_nome_17-4" data-name="Gradiente sem nome 17" x1="20.13" x2="20.13" xlink:href="#Gradiente_sem_nome_17"/>
  </defs>
  <g id="Camada_1-2" data-name="Camada 1">
    <g>
      <g>
        <path d="M342.96,135.72c-2.97,2.14-7.34,3.16-11.79,3.16-11.79,0-18.67-6.04-18.67-17.92v-20.52h-7.71v-11.14h7.71v-12.16h14.49v12.16h12.44v11.14h-12.44v20.34c0,4.27,2.32,6.59,6.22,6.59,2.14,0,4.27-.65,5.85-1.86l3.9,10.21Z" style="fill: #362589;"/>
        <path d="M397.47,88.18l-21.08,49.96h-14.95l-20.99-49.96h14.95l13.84,33.99,14.3-33.99h13.93Z" style="fill: #362589;"/>
      </g>
      <g>
        <polygon points="36.34 142.7 23.87 51.04 49.52 51.04 49.52 142.7 36.34 142.7" style="fill: url(#Gradiente_sem_nome_17);"/>
        <path d="M53.08,142.7V51.04c1.75.47,3.16.01,4.79-.02,6.35-.12,12.73.13,19.08.02l-11.76,91.65h-12.11Z" style="fill: url(#Gradiente_sem_nome_17-2);"/>
        <path d="M68.75,142.7l11.76-91.65h14.96l-10.43,84.96c-.9,3.67-3.01,5.27-6.31,6.7h-9.97Z" style="fill: url(#Gradiente_sem_nome_17-3);"/>
        <path d="M24.22,142.7c-2.83-.95-5.17-2.86-6.23-5.71L7.48,51.04h12.82l12.47,91.65h-8.55Z" style="fill: url(#Gradiente_sem_nome_17-4);"/>
        <path d="M0,41.42c.48-2.13,3.12-3.49,2.84-5.5-.12-.85-.73-1.37-.74-2.52-.03-2.57,2.26-4.71,4.8-4.45,1.03.11,2,1.07,3.06.53,1.14-.73,1.08-2.08,1.95-3.06,1.89-2.11,5.44-1.87,6.91.61,1.86,3.14-.66,4.3-.31,6.35.2,1.18,1.76,1.04,1.71,2.59-.01.4-1.79,2.78-2.11,4.15-.42,1.79-.32,3.41-.31,5.22-1.64-.03-2.53-1.39-3.93.17-.42.47-.58,1.35-.87,1.62-1.03.93-6.78-.02-8.5.41l-1.12,1.72c-1.68-.96-2.3-2.79-3.39-4.28v-3.57Z" style="fill: #f9d373;"/>
        <path d="M92.52,47.02c-.89.73-9.35.7-10.37.07-2.48-1.54-1.47-6.22-2.33-7.57s-3.98-.59-3.59-5.05c.37-4.18,4.88-3.02,4.62-5.68-.06-.66-.61-1.17-.7-1.84-.51-3.7,3.53-6.26,6.75-4.23,1.98,1.25,1.33,2.62,2.13,3.93,1.14,1.86,3.22.13,4.83.13,5.32-.01,7.68,7.15,3.01,10.18-.8.52-2.52.73-2.78,1.5.25,2.44.55,6.82-1.58,8.58Z" style="fill: #f9d373;"/>
        <path d="M39.98,34.2c.47.46,2.64.82,3.66,1.87,3.12,3.2,1.29,8.87-3.21,9.28-3.27.29-4.72-2.42-6.47,2.15-3.21-.35-7.19.42-10.29,0-2.87-.39-2.74-5.93-1.53-7.99.52-.89,1.82-1.53,2.03-2.64s-.5-1.55-.64-2.43c-.27-1.75-.03-3.46,1.42-4.6,2.72-2.15,4.61.19,6.14-.24,1.24-.35,1.62-4.13,4.37-4.57,3.37-.53,5.79,2.11,5.06,5.43-.23,1.04-1.78,2.52-.55,3.74Z" style="fill: #f9d373;"/>
        <path d="M89.3,17.04c-.35.35-2.2,1.42-2.64,1.49-.82.13-1.43-.35-2.05-.3-4.53.35-7.19,2.94-7.98,7.35-.3,1.7.7,2.75-1.65,3.36-1.6-.69-3.01-2.83-3.29-4.54-.19-1.14.17-2.78-.26-3.66-.57-1.18-4.2-1.55-3.99-5.12.23-3.7,3.92-3.49,4.62-4.96.72-1.52-1.73-3.7.66-6.45,1.54-1.77,4.78-1.77,6.37-.06,1.14,1.24.86,3.58,2.23,4.21,1.04.48,2.84-.81,4.26-.73,4.56.25,6.98,6.14,3.71,9.42Z" style="fill: #f9d373;"/>
        <path d="M58.51,28.85c.94.95,3.02-.07,4.34.1,3.75.49,5.04,5.72,1.81,7.83-1.3.85-2.76.45-3.92,1.42-.95,1.6,1.55,4.5-1.05,7.51s-7.41,2.36-9.16-1.19c-.33-.67-.29-1.61-.63-2.14-.21-.33-.88-.35-1.03-.82-.24-.72.03-1.82-.15-2.72-.64-3.18-1.99-5.25-4.71-7.02l.22-3.36c.36-1.13,3.56-.31,4.69-.65,1.5-.45.87-3.77,5.42-3.52,3.78.2,2.92,3.31,4.17,4.58Z" style="fill: #f9d373;"/>
        <path d="M35.33,16.03c-.19-.33.38-2.71.3-3.68-.27-3.37-3.39-6.69-6.77-6.96,1.5-2.72,5.21-1.22,7.24-1.85,1.52-.47,1.64-4.08,5.74-3.48,3.6.53,3.07,4.48,4.48,5.16,2.14.21,3.51-.89,5.52.52,2.98,2.1,2.18,6.48-1.24,7.68-1.01.35-2.48-.07-3.05,1.25-.4.93.46,2.07.52,3.06.22,3.53-4.29,7.73-7.44,4.92-1.29-1.15-1.66-3.76-3.23-5.32-.51-.5-2.01-1.21-2.07-1.32Z" style="fill: #f9d373;"/>
        <path d="M30.87,10.15c.58.61,1.18,2.08,1.21,2.93.05,1.67-1.59,2.87-1.03,4.56.26.79,4.66,1.76,4.58,3.8-2.36-.81-5.55,3.63-6.3,3.86-1.68.51-4.41-.13-6.31,1.46-1.88-2.89-3.86-5.44-7.7-5.32.61-1.41-.45-2.27-.64-3.48-.41-2.7,1.61-5.12,4.38-5.11,1.22,0,2.49.96,3.37.58,1.07-.68,1.09-1.91,1.79-2.87,1.53-2.08,4.9-2.25,6.65-.41Z" style="fill: #f9d373;"/>
        <path d="M66.97,21.81l-.18.71c-3.58-1.69-4-.38-5.69,2.48-2.13-3.39-5.8-5.27-9.79-3.92l.52-4.29c4.13-1.49,6.68-6.22,4.82-10.33,3.57.69,2.54-1.43,3.91-3.04,2.03-2.38,6.92-1.6,7.47,1.45.12.65.14,3.31-.04,3.85-.17.5-1.27.93-1.74,1.47-3.07,3.46-3.35,9.03.73,11.61Z" style="fill: #f9d373;"/>
        <path d="M63.05,47.48c.47-1.26,1.11-2.05,1.33-3.48.17-1.09,0-2.16.15-3.24,6.52-2.22,7.68-11.08,1.37-14.33.22-.76,2.33-.38,2.68,0s.93,2.15,1.6,3.03,1.78,1.92,2.79,2.39c-.48,2.7-.69,5.39.96,7.76.59.85,2.41,1.95,2.58,2.41.13.35.55,3.54.42,3.67-1.38-.69-2.48,1.79-2.67,1.79h-11.22Z" style="fill: #f9d373;"/>
      </g>
      <g>
        <path d="M109.12,71.35c-1.93,0-2.78-.89-2.78-2.9V16.18c0-2.02.85-2.9,2.78-2.9h23.61c14.04,0,18.21,6.37,18.21,15.73v10.32c0,9.36-4.17,15.73-18.21,15.73h-8.87v13.39c0,2.02-.85,2.9-2.78,2.9h-11.96ZM123.7,40.54h6.94c3.01,0,3.63-1.86,3.63-3.95v-4.27c0-2.1-.62-3.95-3.63-3.95h-6.94v12.18Z" style="fill: #5333c1;"/>
        <path d="M176.32,72.56c-19.29,0-23.99-6.61-23.99-16.45v-27.5c0-9.84,4.71-16.53,23.99-16.53s23.92,6.69,23.92,16.53v27.5c0,9.84-4.63,16.45-23.92,16.45ZM176.32,56.99c5.63,0,6.48-1.61,6.48-3.79v-21.7c0-2.1-.85-3.71-6.48-3.71s-6.48,1.61-6.48,3.71v21.7c0,2.18.93,3.79,6.48,3.79Z" style="fill: #5333c1;"/>
        <path d="M207.03,71.35c-1.93,0-2.78-.89-2.78-2.9V16.18c0-2.02.85-2.9,2.78-2.9h23.61c14.04,0,18.21,6.37,18.21,15.73v10.32c0,9.36-4.17,15.73-18.21,15.73h-8.87v13.39c0,2.02-.85,2.9-2.78,2.9h-11.96ZM221.61,40.54h6.94c3.01,0,3.63-1.86,3.63-3.95v-4.27c0-2.1-.62-3.95-3.63-3.95h-6.94v12.18Z" style="fill: #5333c1;"/>
        <path d="M124.48,136.96c-12.96,0-18.98-5.24-18.98-16.45v-25.08c0-11.29,6.02-16.53,18.98-16.53h18.83c1.93,0,2.78.89,2.78,2.9v9.76c0,2.02-.85,2.9-2.78,2.9h-15.51c-3.24,0-4.71,1.29-4.71,4.03v19.2c0,2.66,1.47,3.87,4.71,3.87h15.51c1.93,0,2.78.89,2.78,2.9v9.6c0,2.02-.85,2.9-2.78,2.9h-18.83Z" style="fill: #5333c1;"/>
        <path d="M171.77,138.17c-19.29,0-23.99-6.61-23.99-16.45v-27.5c0-9.84,4.71-16.53,23.99-16.53s23.92,6.69,23.92,16.53v27.5c0,9.84-4.63,16.45-23.92,16.45ZM171.77,122.6c5.63,0,6.48-1.61,6.48-3.79v-21.7c0-2.1-.85-3.71-6.48-3.71s-6.48,1.61-6.48,3.71v21.7c0,2.18.93,3.79,6.48,3.79Z" style="fill: #5333c1;"/>
        <path d="M202.48,136.96c-1.93,0-2.78-.89-2.78-2.9v-52.26c0-2.02.85-2.9,2.78-2.9h25.69c11.57,0,15.2,5.48,15.2,13.47v3.71c0,4.52-1.08,7.74-4.32,9.19,5.63.65,9.34,4.92,9.34,11.69v17.1c0,2.02-.85,2.9-2.78,2.9h-11.96c-1.93,0-2.78-.89-2.78-2.9v-12.34c0-2.42-.77-3.47-2.93-3.47h-10.8v15.81c0,2.02-.85,2.9-2.78,2.9h-11.88ZM217.14,103.73h5.79c2.7,0,3.39-1.61,3.39-3.79v-2.74c0-2.18-.69-3.79-3.39-3.79h-5.79v10.32Z" style="fill: #5333c1;"/>
        <path d="M254.01,136.96c-1.93,0-2.78-.89-2.78-2.9v-52.26c0-2.02.85-2.9,2.78-2.9h8.02c2.01,0,3.24.56,4.55,2.18l14.97,17.9v-17.18c0-2.02.85-2.9,2.78-2.9h11.57c1.93,0,2.78.89,2.78,2.9v52.26c0,2.02-.85,2.9-2.78,2.9h-11.57c-1.93,0-2.78-.89-2.78-2.9v-9.92l-13.19-16.7v26.62c0,2.02-.85,2.9-2.78,2.9h-11.57Z" style="fill: #5333c1;"/>
      </g>
    </g>
  </g>
</svg>